<?xml version="1.0" standalone="no"?>
<!DOCTYPE svg PUBLIC "-//W3C//DTD SVG 20010904//EN"
 "http://www.w3.org/TR/2001/REC-SVG-20010904/DTD/svg10.dtd">
<svg version="1.0" xmlns="http://www.w3.org/2000/svg"
 width="1160.000000pt" height="773.000000pt" viewBox="0 0 1160.000000 773.000000"
 preserveAspectRatio="xMidYMid meet">
<metadata>
Created by potrace 1.15, written by Peter Selinger 2001-2017
</metadata>
<g transform="translate(0.000000,773.000000) scale(0.100000,-0.100000)"
fill="#000000" stroke="none">
<path d="M0 6765 l0 -965 5800 0 5800 0 0 965 0 965 -5800 0 -5800 0 0 -965z"/>
<path d="M3920 5275 c0 -8 -9 -15 -20 -15 -18 0 -20 -7 -20 -55 0 -52 1 -55
25 -55 16 0 25 -6 25 -15 0 -13 -11 -15 -62 -13 -38 2 -63 8 -66 16 -2 7 6 12
22 12 22 0 26 4 26 30 0 28 -2 30 -20 20 -12 -6 -25 -23 -31 -38 -8 -21 -6
-31 10 -52 12 -17 16 -32 11 -41 -5 -7 -12 -10 -17 -6 -4 5 -1 12 7 17 13 8
12 10 -2 10 -20 0 -24 -20 -6 -38 8 -8 2 -8 -26 0 -34 11 -36 13 -16 20 22 8
23 29 1 36 -7 2 -15 -5 -18 -17 -5 -19 -13 -21 -68 -21 -52 0 -63 3 -61 16 0
9 -5 19 -11 21 -19 7 -29 -27 -12 -38 12 -7 12 -9 0 -9 -8 0 -20 8 -28 18 -13
15 -13 15 -3 -5 12 -25 2 -30 -19 -10 -10 10 -11 9 -6 -4 4 -10 2 -20 -4 -24
-6 -3 -11 1 -11 9 0 21 -19 31 -33 16 -9 -9 -8 -15 6 -25 18 -13 17 -14 -2
-20 -12 -3 -21 -11 -21 -16 0 -5 -44 -9 -99 -9 -92 0 -99 1 -104 21 -6 24 -31
21 -33 -5 -2 -12 -1 -13 3 -1 2 8 9 15 15 15 5 0 8 -7 4 -15 -3 -8 0 -15 7
-16 14 0 -22 -17 -39 -18 -7 -1 -11 7 -10 17 0 9 -6 17 -14 17 -8 0 -16 -8
-18 -17 -2 -12 3 -18 15 -18 15 0 16 -2 3 -10 -21 -14 -30 -12 -30 5 0 8 -9
15 -20 15 -21 0 -28 -24 -10 -35 6 -4 7 -11 4 -17 -4 -7 -10 -5 -16 6 -5 9
-16 16 -23 16 -20 0 -19 -29 0 -36 8 -4 12 -10 9 -16 -3 -5 -12 -4 -20 3 -9 7
-14 8 -12 3 2 -5 -1 -9 -7 -9 -5 0 -9 4 -7 8 1 5 -2 6 -8 2 -8 -5 -8 -11 1
-21 6 -7 15 -11 20 -8 5 3 9 1 9 -4 0 -16 -13 -22 -26 -11 -16 13 -34 4 -34
-18 0 -10 6 -14 20 -10 13 3 20 0 20 -10 0 -10 -6 -12 -19 -8 -11 3 -22 1 -26
-4 -3 -7 0 -8 9 -5 9 3 16 1 16 -4 0 -6 -6 -12 -12 -15 -7 -2 -5 -3 5 -2 9 2
17 -3 17 -11 0 -8 -6 -11 -15 -8 -9 4 -18 -1 -21 -10 -9 -24 4 -32 26 -18 16
10 20 10 20 -2 0 -7 -9 -16 -20 -19 -26 -7 -26 -27 0 -34 11 -3 17 -10 14 -15
-4 -6 3 -5 15 1 17 9 20 9 15 -3 -3 -8 -13 -17 -22 -19 -16 -4 -16 -5 0 -6 11
-1 15 -7 11 -21 -4 -16 0 -20 21 -20 28 0 66 -31 66 -55 0 -8 10 -20 23 -26
12 -7 37 -25 55 -40 18 -16 39 -29 47 -29 8 0 15 -7 15 -15 0 -9 12 -20 26
-25 17 -7 24 -15 20 -26 -3 -8 1 -17 10 -21 11 -4 14 -14 10 -34 -7 -34 -1
-38 89 -60 l70 -18 -222 0 -223 -1 0 -256 c0 -239 -1 -255 -17 -250 -33 10
-148 26 -185 26 l-37 0 -4 138 -3 137 -2 -137 c-2 -132 -3 -138 -23 -138 -19
0 -20 4 -17 135 2 74 0 135 -4 135 -5 0 -8 -60 -8 -134 l0 -133 -72 -12 c-40
-7 -83 -14 -95 -17 -22 -6 -22 -6 -26 147 l-3 154 -2 -157 c-1 -119 -5 -158
-14 -158 -22 0 -122 -50 -145 -72 -29 -27 -29 -45 3 -121 30 -74 59 -103 113
-112 l41 -7 0 -64 0 -64 -63 -30 c-95 -44 -101 -54 -86 -132 8 -45 20 -72 40
-93 16 -17 29 -39 29 -50 0 -17 1 -17 20 0 22 20 27 74 9 107 -12 22 -5 32 29
43 l22 6 0 -170 c0 -110 -4 -172 -11 -176 -6 -4 -8 -13 -5 -21 7 -19 -3 -44
-20 -44 -8 0 -14 -16 -16 -47 -3 -44 -5 -48 -35 -57 l-33 -9 0 -95 0 -94 38 7
c20 4 64 6 97 6 62 -2 133 -2 233 0 31 1 72 -2 90 -6 l32 -7 0 95 0 95 -30 7
c-28 6 -30 9 -30 55 0 40 -3 49 -21 53 -17 5 -20 11 -17 32 3 15 1 28 -6 31
-8 3 -10 68 -6 233 l5 229 53 42 54 42 -7 61 c-9 78 -25 104 -70 113 -34 6
-35 7 -35 55 0 27 3 49 8 49 31 -2 161 -22 192 -30 l39 -11 3 -402 3 -402 27
-57 c39 -84 98 -142 192 -189 44 -22 89 -38 98 -35 10 2 16 0 13 -4 -7 -11 98
-44 213 -67 105 -21 354 -23 452 -4 97 18 256 69 337 107 82 39 153 104 188
173 44 88 49 145 42 527 l-6 354 37 9 c20 6 56 13 80 16 23 3 60 7 82 10 l40
5 0 -48 c0 -48 -1 -49 -40 -61 -48 -14 -49 -17 -60 -93 -11 -73 -5 -87 55
-128 l44 -30 3 -230 c2 -127 -1 -230 -6 -230 -4 0 -6 -12 -3 -26 3 -19 -2 -29
-19 -41 -19 -12 -24 -24 -24 -58 0 -40 -2 -44 -30 -50 l-30 -7 0 -95 0 -96 38
8 c20 5 61 8 90 7 67 -2 167 -2 235 0 28 1 69 -2 90 -7 l37 -8 0 96 0 95 -30
7 c-28 6 -30 10 -30 50 0 35 -5 46 -26 60 -15 10 -23 22 -20 31 9 22 -14 52
-36 46 -17 -4 -18 6 -18 171 l0 175 55 -20 54 -21 -14 -28 c-20 -38 -19 -72 5
-100 l19 -24 1 22 c0 13 12 32 29 44 24 18 30 32 41 96 13 75 13 76 -11 94
-13 10 -59 33 -101 51 l-78 32 0 138 c0 149 0 149 55 123 l30 -13 -27 -1 c-28
-1 -28 -2 -28 -67 l0 -67 40 7 c68 11 87 25 114 85 47 106 47 107 24 137 -23
29 -153 94 -187 94 -20 0 -21 6 -23 153 l-2 152 -3 -147 c-2 -84 -8 -148 -13
-148 -5 0 -11 64 -13 148 l-3 147 -2 -146 -2 -146 -42 8 c-24 4 -62 8 -86 9
l-43 0 3 135 c2 74 0 135 -4 135 -5 0 -8 -61 -8 -135 l0 -135 -37 0 c-38 0
-153 -16 -185 -26 -17 -5 -18 11 -18 250 l0 256 -227 1 c-216 1 -225 1 -168
14 33 8 65 14 71 14 5 1 18 7 28 14 15 11 16 17 7 35 -9 18 -8 23 9 32 12 6
17 16 13 26 -4 10 2 17 16 21 11 3 21 11 21 19 0 8 15 20 33 27 17 8 38 22 46
31 8 10 27 24 43 32 15 8 28 21 28 29 0 24 38 55 66 55 21 0 25 4 21 19 -3 12
1 22 10 25 8 3 13 12 10 19 -2 6 3 17 11 23 18 13 6 38 -15 30 -9 -4 -13 -1
-10 6 2 7 11 12 18 10 8 -2 11 0 7 4 -4 4 -2 14 5 23 11 14 10 14 -5 2 -17
-12 -18 -10 -18 28 0 29 4 41 14 41 8 0 17 4 20 8 2 4 -10 7 -29 7 -24 -1 -32
2 -28 12 3 7 15 11 27 9 11 -2 16 -1 10 1 -7 2 -10 13 -7 24 3 10 0 19 -6 19
-5 0 -8 -7 -5 -15 4 -8 1 -15 -5 -15 -6 0 -11 7 -11 16 0 9 -9 18 -20 21 -25
7 -26 20 -2 26 15 4 15 5 0 6 -9 0 -20 -3 -23 -9 -3 -5 -11 -10 -17 -10 -6 0
-6 6 2 15 11 13 10 14 -4 9 -9 -3 -16 -1 -16 5 0 6 8 11 18 12 12 0 13 2 3 6
-8 3 -19 -1 -25 -9 -7 -10 -18 -12 -31 -7 -16 6 -17 8 -3 8 26 1 29 16 3 16
-13 0 -21 -4 -17 -9 3 -6 -3 -6 -14 -1 -10 4 -71 11 -134 15 -63 4 -107 7 -97
8 22 2 19 36 -3 38 -8 1 -23 2 -32 3 -10 0 -18 6 -18 12 0 6 7 8 18 4 14 -5
15 -4 4 7 -11 11 -16 10 -28 -6 -7 -11 -17 -17 -20 -13 -4 4 -1 13 5 21 8 10
9 16 1 21 -6 4 -9 2 -8 -3 2 -6 -1 -10 -7 -10 -5 0 -9 4 -8 8 1 5 -11 6 -27 3
-29 -4 -43 11 -17 20 6 2 5 3 -3 3 -8 -1 -14 -9 -14 -19 2 -14 -8 -17 -61 -17
-53 0 -63 3 -61 17 0 10 -7 18 -19 20 -15 1 -16 1 -2 -3 28 -9 20 -25 -10 -20
-16 2 -32 5 -36 5 -4 1 -3 10 3 20 16 31 12 56 -15 81 -31 29 -33 60 -5 60 13
0 20 7 20 20 0 11 -2 20 -5 20 -3 0 -5 -7 -5 -15z m-172 -250 l52 -16 0 -48
c0 -51 -10 -61 -66 -61 -12 0 -65 -13 -119 -30 -54 -16 -101 -30 -106 -30 -11
0 -22 40 -21 79 2 45 43 87 102 106 60 18 96 18 158 0z m436 -19 c25 -15 48
-38 56 -55 14 -35 6 -99 -14 -107 -7 -3 -48 7 -92 20 -44 14 -104 29 -134 33
-55 8 -55 8 -64 51 -7 33 -6 46 5 57 43 41 173 42 243 1z m-757 -62 c4 -10 8
-12 12 -5 4 6 7 -5 8 -24 1 -19 -5 -39 -13 -46 -8 -6 -14 -18 -14 -25 0 -10
-15 -14 -53 -14 -55 0 -145 -26 -197 -56 -36 -22 -45 -15 -45 35 0 49 25 86
75 111 78 40 215 55 227 24z m1085 -12 c57 -26 89 -62 94 -109 8 -62 -5 -70
-67 -40 -70 32 -124 47 -176 47 -41 0 -63 13 -44 25 14 8 7 78 -8 83 -11 4
-11 6 0 14 22 15 153 2 201 -20z m-632 -326 c0 -7 9 -25 21 -40 27 -34 82 -36
117 -3 18 15 26 18 29 9 23 -65 120 -65 148 0 12 29 14 31 20 13 23 -72 62
-98 116 -78 28 11 33 10 52 -13 20 -23 25 -24 52 -14 17 6 40 21 53 32 18 18
22 19 22 5 0 -18 -45 -53 -81 -62 -17 -4 -33 0 -51 14 -19 15 -34 19 -60 15
-38 -7 -95 16 -105 42 -5 13 -8 13 -29 -1 -31 -20 -94 -19 -123 2 -19 13 -28
14 -42 5 -30 -19 -93 -14 -123 9 l-26 20 -26 -20 c-30 -23 -93 -28 -123 -9
-14 9 -23 8 -42 -5 -29 -21 -98 -22 -126 -2 -20 14 -23 14 -32 -3 -15 -28 -65
-45 -105 -38 -28 5 -40 2 -56 -14 -16 -16 -29 -20 -48 -15 -37 8 -76 38 -81
61 -3 17 -1 17 20 -3 13 -12 37 -26 52 -32 25 -10 31 -8 53 16 19 20 27 24 36
15 18 -18 73 -14 96 6 12 9 25 33 30 52 l9 35 11 -25 c13 -34 32 -48 70 -56
26 -5 36 -1 62 24 31 31 31 31 50 12 31 -31 93 -27 119 6 12 15 21 33 21 40 0
8 5 14 10 14 6 0 10 -6 10 -14z m145 -106 c189 -14 385 -50 385 -72 0 -11 -3
-10 -69 7 -219 56 -655 61 -896 9 -38 -8 -83 -18 -99 -21 -43 -9 -24 14 22 27
69 19 214 41 326 49 161 12 177 12 331 1z m85 -40 c52 -6 132 -17 178 -26 82
-17 109 -34 52 -34 -35 0 -38 -10 -9 -28 43 -27 3 -31 -96 -10 -89 20 -130 22
-365 22 -235 0 -277 -2 -369 -22 -58 -12 -107 -19 -110 -17 -2 3 6 16 19 30
l23 25 -31 0 c-18 0 -32 4 -32 8 0 13 143 41 280 55 78 8 371 6 460 -3z m95
-104 c106 -19 155 -34 155 -46 0 -22 -216 -61 -325 -59 l-80 2 85 7 c120 10
294 42 278 51 -7 4 -54 16 -103 26 -132 26 -548 26 -690 -1 -55 -10 -106 -21
-112 -25 -16 -8 164 -41 279 -51 l83 -7 -75 -2 c-105 -2 -320 38 -320 59 0 15
151 50 275 64 95 10 463 -2 550 -18z m435 -541 l0 -425 -255 0 -255 0 0 25 c0
41 -38 129 -75 172 -38 45 -106 83 -148 83 l-27 0 0 285 0 285 380 0 380 0 0
-425z m393 -211 l37 -6 0 -139 0 -139 -24 10 c-13 5 -52 23 -85 40 l-61 30 0
111 0 111 48 -6 c26 -4 64 -9 85 -12z m-2243 -113 l0 -118 -67 -31 c-38 -17
-80 -36 -95 -41 l-28 -11 0 144 0 144 58 15 c31 8 74 15 95 16 l37 1 0 -119z
m387 -481 l3 -365 -25 40 c-46 73 -49 96 -52 403 l-4 293 38 -3 38 -3 2 -365z
m173 -55 c0 -234 -2 -425 -5 -425 -2 0 -20 8 -40 17 l-35 17 0 408 0 408 40 0
40 0 0 -425z m170 -10 l0 -435 -40 0 -40 0 0 428 c0 236 3 432 7 435 3 4 21 7
40 7 l33 0 0 -435z m654 350 c3 -8 12 -15 19 -15 8 0 20 7 27 15 7 8 23 15 35
15 12 0 28 -7 35 -15 7 -8 19 -15 27 -15 7 0 16 7 19 15 4 10 20 15 44 15 24
0 40 -5 44 -15 3 -8 14 -15 24 -15 11 0 25 7 32 15 16 20 54 19 71 -1 11 -14
10 -21 -4 -46 -21 -37 -22 -74 -2 -82 9 -3 15 -19 15 -41 0 -24 -4 -35 -15
-35 -10 0 -15 -10 -15 -31 0 -17 7 -37 15 -45 8 -9 15 -22 15 -29 0 -7 -7 -20
-15 -29 -20 -19 -19 -43 1 -54 20 -11 11 -67 -13 -81 -11 -5 -16 -23 -16 -52
1 -47 -10 -69 -35 -69 -21 0 -52 -30 -52 -50 0 -23 -23 -32 -84 -34 -33 -2
-51 -7 -58 -19 -12 -23 -40 -21 -69 4 -18 15 -32 19 -55 14 -37 -7 -84 12 -84
33 0 22 -30 52 -51 52 -25 0 -34 18 -34 68 0 31 -6 47 -18 53 -18 11 -25 79
-7 79 15 0 12 38 -5 64 -13 20 -13 25 0 42 17 23 20 81 3 86 -6 2 -8 10 -4 16
4 7 16 10 27 7 13 -4 19 -2 19 8 0 8 7 20 15 27 13 11 15 7 15 -23 0 -22 -6
-37 -15 -41 -19 -7 -19 -53 -1 -72 17 -16 66 -19 66 -4 0 6 18 10 40 10 22 0
40 -4 40 -10 0 -5 11 -10 25 -10 16 0 25 -6 25 -15 0 -9 -9 -15 -25 -15 -14 0
-25 -4 -25 -10 0 -5 -18 -10 -40 -10 -22 0 -40 5 -40 10 0 15 -49 12 -66 -4
-18 -19 -18 -42 1 -50 17 -6 21 -76 5 -76 -17 0 -11 -40 7 -47 20 -8 64 43 56
64 -7 18 35 63 53 56 7 -3 25 8 38 24 20 24 31 28 70 28 36 -1 52 -7 76 -30
16 -16 33 -25 37 -22 11 11 62 -44 56 -60 -6 -15 33 -63 53 -63 18 0 25 40 8
47 -19 7 -19 69 1 77 18 7 20 37 3 54 -15 15 -54 16 -63 2 -3 -5 -24 -10 -46
-10 -21 0 -39 5 -39 10 0 6 -9 10 -20 10 -11 0 -20 7 -20 15 0 8 9 15 20 15
11 0 20 5 20 10 0 6 18 10 39 10 22 0 43 -4 46 -10 9 -14 48 -13 63 2 18 18
16 78 -3 78 -11 0 -15 11 -15 35 0 22 6 38 15 41 9 4 15 19 15 36 l0 31 -40
-44 c-21 -24 -37 -50 -34 -58 6 -17 -34 -61 -55 -61 -8 0 -28 -12 -43 -27 -41
-39 -108 -39 -145 -1 -15 16 -33 28 -42 28 -22 0 -60 40 -54 56 3 8 -2 23 -12
34 -25 28 -8 47 20 20 12 -11 29 -18 37 -15 19 7 61 -46 53 -67 -3 -8 8 -27
25 -43 l30 -29 0 47 c0 26 -4 47 -10 47 -5 0 -10 18 -10 40 0 22 5 40 10 40
21 0 9 37 -16 51 -23 12 -27 11 -39 -4 -16 -22 -75 -23 -75 -2 0 9 9 15 25 15
14 0 25 5 25 10 0 6 -7 10 -15 10 -8 0 -15 7 -15 15 0 9 9 15 24 15 13 0 26
-7 30 -15z m-494 -102 c19 -24 20 -40 20 -324 l0 -299 -32 -20 c-18 -11 -36
-20 -40 -20 -5 0 -8 174 -8 388 l0 387 20 -43 c11 -24 29 -55 40 -69z m-840
-163 c0 -213 -1 -220 -20 -220 -19 0 -20 7 -20 208 0 202 4 232 32 232 4 0 8
-99 8 -220z m2137 185 c39 -19 76 -35 82 -35 8 0 11 -59 11 -185 l0 -185 -85
0 -85 0 0 220 c0 121 1 220 3 220 2 0 35 -16 74 -35z m-2187 -198 l0 -203 -95
-3 -95 -2 0 169 0 169 93 36 c50 20 93 36 95 37 1 0 2 -91 2 -203z m1067 79
c1 -1 3 -68 4 -148 2 -154 -10 -214 -52 -269 -18 -23 -19 -19 -19 203 l0 228
33 -7 c17 -3 33 -7 34 -7z m66 -418 c68 -117 240 -202 372 -184 38 5 37 4 -15
-15 -82 -29 -234 -58 -346 -65 -115 -7 -285 13 -409 48 -71 20 -76 23 -45 26
67 6 165 33 205 56 62 37 138 124 165 188 l24 58 11 -34 c7 -19 24 -54 38 -78z
m-1033 -3 l0 -35 -170 0 -170 0 0 35 0 35 170 0 170 0 0 -35z m2310 0 l0 -35
-175 0 -175 0 0 35 0 35 175 0 175 0 0 -35z"/>
<path d="M4298 4165 c5 -30 -16 -50 -62 -59 -28 -6 -28 -6 -12 -31 20 -30 10
-32 -24 -5 -25 20 -51 25 -63 14 -9 -9 48 -54 68 -54 9 0 13 -5 9 -11 -3 -6 0
-15 7 -20 12 -8 12 -11 -1 -19 -30 -19 -89 -4 -140 37 -2 2 -4 22 -5 45 0 24
-5 43 -13 46 -7 2 -12 0 -11 -5 1 -4 -1 -16 -5 -25 -6 -14 -12 -15 -28 -7 -11
6 -26 8 -35 5 -13 -5 -13 -8 1 -22 20 -19 20 -30 1 -38 -30 -11 -16 -32 19
-30 23 2 36 -2 40 -11 3 -8 0 -15 -7 -15 -7 0 -4 -5 6 -11 9 -6 15 -14 12 -20
-4 -5 3 -9 13 -9 11 0 30 -9 43 -19 24 -20 24 -20 4 -35 -24 -19 -39 -20 -64
-4 -10 6 -26 8 -35 5 -16 -6 -16 -8 -2 -23 15 -14 14 -17 -6 -34 l-23 -19 26
-1 c20 0 28 -6 33 -25 9 -34 25 -31 33 6 5 28 9 30 34 25 16 -3 31 -1 34 4 4
6 11 8 16 5 5 -4 9 -2 9 3 0 21 33 22 48 1 8 -11 28 -29 46 -40 l31 -19 -37 0
c-20 0 -44 -7 -52 -16 -23 -22 -20 -60 6 -78 l22 -16 -22 0 c-12 0 -31 9 -42
20 -11 11 -26 17 -35 13 -12 -4 -13 -9 -6 -16 16 -16 13 -25 -9 -32 -18 -6
-30 -37 -12 -34 25 4 41 -4 44 -23 4 -30 23 -33 35 -7 7 18 18 23 54 23 47 1
49 5 35 61 -5 21 -3 25 14 25 14 0 20 -7 20 -23 0 -13 6 -32 14 -42 14 -20 46
-29 46 -14 0 6 5 7 10 4 16 -10 11 -25 -8 -25 -10 0 -29 -8 -42 -17 l-24 -17
34 -7 c34 -7 58 -1 33 8 -14 5 -18 24 -5 22 21 -4 32 3 32 20 0 25 -25 45 -51
38 -28 -7 -35 16 -18 65 13 39 12 41 -13 62 -14 11 -39 29 -57 38 -46 25 -50
47 -15 75 26 20 30 21 41 7 10 -14 12 -14 21 2 8 14 11 11 21 -16 6 -18 23
-48 37 -67 19 -26 32 -33 58 -33 47 0 60 20 53 83 l-6 52 14 -34 c8 -18 15
-44 15 -57 0 -29 -33 -64 -60 -64 -42 0 -53 -69 -15 -101 23 -20 23 -24 10
-50 -8 -15 -15 -37 -15 -48 0 -11 -4 -23 -10 -26 -5 -3 -10 -2 -10 3 0 6 -11
9 -25 8 -19 -1 -25 -7 -25 -24 0 -20 2 -21 20 -10 16 11 22 9 34 -7 20 -27 31
-13 29 37 -1 24 5 54 15 71 17 28 17 29 -11 51 -40 32 -34 64 18 90 57 30 64
59 36 145 -21 65 -22 111 -1 111 4 0 20 20 33 45 15 25 21 45 14 45 -8 0 -8 3
1 12 7 7 12 20 12 30 0 18 -1 18 -26 2 -19 -13 -28 -14 -33 -6 -11 18 -40 -75
-42 -133 -1 -27 4 -80 11 -117 15 -74 7 -98 -34 -98 -27 0 -37 8 -64 46 -19
27 -21 38 -13 78 4 25 6 48 3 51 -13 12 -19 3 -14 -22 5 -24 3 -26 -10 -15
-13 10 -17 9 -23 -5 -6 -17 -7 -17 -17 0 -9 18 -10 18 -24 0 -13 -17 -13 -17
-14 5 0 12 -4 22 -10 22 -5 0 -10 -4 -10 -9 0 -5 -7 -12 -16 -15 -13 -5 -15
-1 -12 24 4 28 2 30 -26 31 -27 2 -27 2 -6 6 65 10 72 14 67 33 -3 13 0 20 9
20 16 0 33 30 27 48 -3 6 -13 12 -24 12 -12 0 -16 5 -13 15 7 18 37 19 67 4
22 -12 22 -12 3 10 -11 11 -15 21 -10 21 13 0 56 -29 72 -48 15 -20 16 -66 1
-56 -14 8 -2 -34 15 -55 9 -12 8 -13 -6 -8 -13 4 -16 1 -14 -19 4 -32 16 -44
16 -15 0 12 4 19 10 16 14 -9 12 19 -2 33 -8 8 -9 15 -3 20 6 4 10 23 10 42 0
31 4 36 30 41 24 5 27 7 13 13 -10 5 -18 15 -18 23 0 10 -7 14 -19 10 -14 -3
-17 0 -14 14 4 13 0 19 -11 19 -9 0 -16 5 -16 11 0 6 -9 9 -19 6 -12 -3 -22 1
-25 9 -9 24 -23 15 -18 -11z"/>
<path d="M4287 3242 c-21 -23 -22 -42 -2 -42 11 0 15 -11 15 -35 0 -22 -6 -38
-15 -41 -10 -4 -15 -20 -15 -52 l0 -46 30 29 c17 16 29 37 28 46 -4 21 40 69
56 63 13 -5 86 68 86 86 0 16 -40 12 -46 -5 -4 -10 -20 -15 -44 -15 -24 0 -40
5 -44 15 -7 20 -29 19 -49 -3z"/>
<path d="M4213 2918 c-13 -13 -23 -36 -23 -50 0 -29 -28 -58 -57 -58 -23 0
-47 -32 -55 -72 -6 -30 13 -55 32 -43 16 10 70 -15 70 -32 0 -19 27 -28 45
-13 17 14 21 100 5 100 -13 0 -13 77 1 82 6 2 9 25 7 57 l-3 53 -22 -24z"/>
<path d="M4270 2888 c0 -40 4 -57 15 -62 9 -3 15 -19 15 -41 0 -24 -4 -35 -15
-35 -19 0 -21 -80 -3 -98 18 -18 48 -15 48 6 0 18 65 50 77 38 12 -11 33 17
33 43 0 29 -36 71 -61 71 -22 0 -61 44 -54 61 3 9 -7 27 -25 44 l-30 29 0 -56z"/>
<path d="M3866 2661 c-3 -5 -16 -7 -28 -3 -14 3 -19 1 -14 -6 4 -6 -2 -20 -14
-32 -36 -36 -22 -91 30 -108 16 -6 30 -16 30 -22 0 -6 -18 -1 -41 10 -29 15
-55 20 -92 18 l-52 -3 40 -27 c30 -21 52 -28 87 -28 36 0 48 -4 48 -15 0 -8 7
-15 15 -15 8 0 15 7 15 15 0 12 13 15 56 15 54 0 86 10 111 36 10 9 8 13 -10
18 -41 11 -82 6 -120 -14 -20 -11 -37 -16 -37 -11 0 6 12 16 27 23 32 15 54
54 45 78 -20 48 -82 95 -96 71z"/>
<path d="M2709 4476 c-3 -11 -6 -26 -9 -33 -1 -5 -2 -11 -1 -15 0 -5 -14 -8
-33 -8 -37 0 -57 -16 -32 -26 8 -3 23 -18 32 -32 15 -24 13 -23 -23 8 -22 19
-38 38 -36 43 2 4 -12 -2 -31 -14 -49 -29 -48 -60 4 -111 23 -21 38 -43 35
-48 -3 -6 -22 -10 -41 -10 l-34 0 0 -50 c0 -36 4 -50 14 -50 22 0 41 -29 28
-42 -33 -33 -14 -38 132 -38 80 0 147 4 150 9 3 5 -1 14 -9 21 -21 17 -19 25
10 40 21 11 25 20 25 62 l0 48 -35 0 c-34 0 -34 0 -22 28 6 15 22 35 34 45 13
10 23 29 23 41 0 24 -36 63 -60 64 -8 1 -33 4 -56 8 -35 5 -40 9 -40 32 1 21
-21 46 -25 28z m171 -296 l0 -40 -165 0 -165 0 0 40 0 40 165 0 165 0 0 -40z"/>
<path d="M5011 4447 c-9 -24 -21 -32 -43 -28 -5 0 -8 -3 -8 -9 0 -5 9 -10 20
-10 11 0 20 -4 20 -10 0 -5 -6 -7 -13 -4 -8 3 -27 0 -43 -6 -25 -9 -27 -8 -11
4 9 7 17 19 17 27 0 11 -2 11 -8 2 -5 -7 -20 -10 -37 -8 -24 4 -27 3 -12 -5
26 -17 20 -33 -11 -28 -24 3 -28 1 -30 -23 -1 -18 6 -34 20 -46 13 -10 29 -30
35 -45 12 -28 12 -28 -22 -28 l-35 0 0 -50 c0 -29 5 -50 11 -50 6 0 17 -7 26
-16 12 -11 13 -18 4 -27 -6 -6 -11 -17 -11 -24 0 -10 33 -13 145 -13 112 0
145 3 145 13 0 7 -5 18 -11 24 -9 9 -8 16 4 27 9 9 20 16 26 16 6 0 11 21 11
50 l0 50 -34 0 c-19 0 -37 4 -40 9 -3 5 12 27 34 49 43 43 49 62 25 82 -13 11
-13 15 -3 23 9 6 8 7 -4 3 -10 -3 -18 0 -18 6 0 6 -3 8 -7 5 -3 -4 1 -15 11
-26 16 -18 16 -18 -11 -13 -15 2 -32 8 -38 12 -5 4 -22 7 -37 6 -16 -1 -28 2
-28 7 0 5 11 7 25 5 20 -4 23 -2 14 8 -5 7 -18 11 -28 9 -11 -2 -17 4 -18 17
-3 36 -21 44 -32 15z m179 -267 l0 -40 -165 0 -165 0 0 40 0 40 165 0 165 0 0
-40z"/>
<path d="M0 965 l0 -965 5800 0 5800 0 0 965 0 965 -5800 0 -5800 0 0 -965z"/>
</g>
</svg>
