<?xml version="1.0" standalone="no"?>
<!DOCTYPE svg PUBLIC "-//W3C//DTD SVG 20010904//EN"
 "http://www.w3.org/TR/2001/REC-SVG-20010904/DTD/svg10.dtd">
<svg version="1.0" xmlns="http://www.w3.org/2000/svg"
 width="1160.000000pt" height="611.000000pt" viewBox="0 0 1160.000000 611.000000"
 preserveAspectRatio="xMidYMid meet">
<metadata>
Created by potrace 1.15, written by Peter Selinger 2001-2017
</metadata>
<g transform="translate(0.000000,611.000000) scale(0.100000,-0.100000)"
fill="#000000" stroke="none">
<path d="M0 4465 l0 -1645 5800 0 5800 0 0 235 0 235 -3480 0 -3480 0 0 235 0
235 3480 0 3480 0 0 235 0 235 -3480 0 -3480 0 0 235 0 235 3480 0 3480 0 0
235 0 235 -3480 0 -3480 0 0 235 0 235 3480 0 3480 0 0 235 0 235 -5800 0
-5800 0 0 -1645z m415 1428 l17 -53 66 0 67 -1 -30 -22 c-16 -12 -41 -31 -54
-43 l-24 -21 21 -61 c11 -34 20 -62 19 -62 -1 0 -27 17 -57 39 l-54 39 -53
-39 c-29 -22 -53 -36 -53 -31 0 5 9 34 19 64 l19 56 -53 38 -54 39 66 5 66 5
20 58 c11 32 23 55 27 50 4 -4 15 -32 25 -60z m770 7 l18 -60 66 0 66 -1 -34
-27 c-80 -63 -74 -50 -51 -116 11 -33 20 -61 20 -63 0 -3 -22 11 -49 31 -27
20 -54 36 -60 36 -6 0 -33 -16 -61 -36 -27 -20 -50 -34 -50 -32 0 3 9 31 20
64 23 66 29 53 -51 116 l-34 27 66 1 66 0 18 60 c10 33 21 60 25 60 4 0 15
-27 25 -60z m773 -1 l19 -54 68 -5 68 -5 -56 -38 -55 -38 19 -56 c10 -31 19
-60 19 -65 0 -5 -24 9 -53 31 l-53 39 -40 -30 c-74 -56 -75 -56 -52 14 l21 61
-24 21 c-13 12 -38 31 -54 43 l-30 22 67 1 66 0 18 53 c27 84 26 84 52 6z
m777 -6 l17 -53 66 0 67 -1 -30 -22 c-16 -12 -41 -31 -54 -43 l-24 -21 21 -61
c11 -34 20 -62 19 -62 -1 0 -27 17 -57 39 l-54 39 -53 -39 c-29 -22 -53 -36
-53 -31 0 5 9 34 19 64 l19 56 -53 38 -54 39 66 5 66 5 20 58 c11 32 23 55 27
50 4 -4 15 -32 25 -60z m770 7 l18 -60 66 0 66 -1 -34 -27 c-80 -63 -74 -50
-51 -116 11 -33 20 -61 20 -63 0 -3 -22 11 -49 31 -27 20 -54 36 -60 36 -6 0
-33 -16 -61 -36 -27 -20 -50 -34 -50 -32 0 3 9 31 20 64 23 66 29 53 -51 116
l-34 27 66 1 66 0 18 60 c10 33 21 60 25 60 4 0 15 -27 25 -60z m773 -1 l19
-54 68 -5 68 -5 -56 -38 -55 -38 19 -56 c10 -31 19 -60 19 -65 0 -5 -24 9 -53
31 l-53 39 -40 -30 c-74 -56 -75 -56 -52 14 l21 61 -24 21 c-13 12 -38 31 -54
43 l-30 22 67 1 66 0 18 53 c27 84 26 84 52 6z m-3480 -330 l19 -54 66 -5 66
-5 -54 -39 -53 -38 19 -56 c10 -30 19 -59 19 -64 0 -5 -23 9 -52 31 l-52 40
-46 -33 c-72 -51 -71 -51 -50 10 11 32 20 62 20 68 0 6 -24 27 -52 46 l-52 35
66 3 67 3 17 52 c27 84 26 84 52 6z m776 -6 l17 -52 67 -3 66 -3 -52 -35 c-28
-19 -52 -40 -52 -46 0 -6 9 -36 19 -67 11 -32 19 -57 17 -57 -1 0 -26 18 -56
40 -31 23 -58 36 -64 32 -6 -5 -30 -23 -53 -41 -24 -18 -43 -29 -43 -23 0 5 9
34 19 65 l20 56 -56 40 -57 40 69 3 68 3 20 58 c11 32 23 55 27 50 4 -4 15
-31 24 -60z m771 7 l18 -60 66 0 66 -1 -34 -27 c-80 -63 -74 -50 -51 -116 11
-33 19 -61 17 -62 -1 -2 -25 15 -54 36 l-51 39 -56 -40 c-31 -22 -56 -38 -56
-36 0 2 9 30 20 63 l21 59 -24 20 c-13 11 -37 30 -53 42 l-29 22 66 0 66 1 18
60 c10 33 21 60 25 60 4 0 15 -27 25 -60z m773 -1 l19 -54 66 -5 66 -5 -54
-39 -53 -38 19 -56 c10 -30 19 -59 19 -64 0 -5 -23 9 -52 31 l-52 40 -46 -33
c-72 -51 -71 -51 -50 10 11 32 20 62 20 68 0 6 -24 27 -52 46 l-52 35 66 3 67
3 17 52 c27 84 26 84 52 6z m776 -6 l17 -52 67 -3 66 -3 -52 -35 c-28 -19 -52
-40 -52 -46 0 -6 9 -36 19 -67 11 -32 19 -57 17 -57 -1 0 -26 18 -56 40 -31
23 -58 36 -64 32 -6 -5 -30 -23 -53 -41 -24 -18 -43 -29 -43 -23 0 5 9 34 19
65 l20 56 -56 40 -57 40 69 3 68 3 20 58 c11 32 23 55 27 50 4 -4 15 -31 24
-60z m-3484 -318 l21 -64 66 -3 66 -3 -52 -35 c-28 -19 -51 -40 -51 -46 0 -6
7 -32 16 -58 9 -26 14 -49 12 -52 -3 -2 -26 12 -53 31 l-49 34 -48 -36 c-27
-19 -51 -33 -54 -31 -2 3 3 24 11 48 23 64 19 74 -36 113 l-52 36 69 3 68 3
20 63 c11 34 21 62 22 62 1 0 12 -29 24 -65z m1633 -65 l67 -5 -50 -34 c-54
-37 -58 -47 -35 -111 8 -24 13 -45 11 -47 -2 -3 -26 11 -53 31 l-49 35 -49
-34 c-27 -19 -50 -33 -52 -31 -3 2 3 29 13 60 10 31 16 57 13 59 -2 2 -26 20
-53 40 l-49 37 66 0 65 0 23 68 22 67 22 -65 22 -65 66 -5z m687 65 l21 -64
66 -3 66 -3 -52 -35 c-28 -19 -51 -40 -51 -46 0 -6 7 -32 16 -58 9 -26 14 -49
12 -52 -3 -2 -26 12 -53 31 l-49 34 -48 -36 c-27 -19 -51 -33 -54 -31 -2 3 3
24 11 48 23 64 19 74 -36 113 l-52 36 69 3 68 3 20 63 c11 34 21 62 22 62 1 0
12 -29 24 -65z m1633 -65 l67 -5 -50 -34 c-54 -37 -58 -47 -35 -111 8 -24 13
-45 11 -47 -2 -3 -26 11 -53 31 l-49 35 -49 -34 c-27 -19 -50 -33 -52 -31 -3
2 3 29 13 60 10 31 16 57 13 59 -2 2 -26 20 -53 40 l-49 37 66 0 65 0 23 68
22 67 22 -65 22 -65 66 -5z m-3178 60 l18 -59 66 -3 66 -3 -52 -37 -52 -37 13
-43 c7 -24 16 -54 20 -67 7 -21 2 -19 -48 18 l-56 42 -52 -40 c-29 -22 -54
-39 -55 -37 -1 1 6 29 17 61 l19 60 -22 20 c-12 11 -36 30 -52 42 l-30 22 66
1 66 0 18 60 c10 33 21 60 25 60 4 0 15 -27 25 -60z m2320 0 l18 -59 66 -3 66
-3 -52 -37 -52 -37 13 -43 c7 -24 16 -54 20 -67 7 -21 2 -19 -48 18 l-56 42
-52 -40 c-29 -22 -54 -39 -55 -37 -1 1 6 29 17 61 l19 60 -22 20 c-12 11 -36
30 -52 42 l-30 22 66 1 66 0 18 60 c10 33 21 60 25 60 4 0 15 -27 25 -60z
m-2624 -390 l64 -5 -47 -34 c-27 -19 -48 -40 -48 -46 0 -7 7 -34 15 -60 8 -27
12 -51 10 -53 -2 -3 -21 9 -42 25 -58 45 -57 45 -109 8 -26 -19 -50 -33 -52
-30 -2 2 4 29 13 60 9 32 14 59 12 61 -2 3 -26 20 -53 39 l-49 35 67 0 66 0
23 68 22 67 22 -65 22 -65 64 -5z m689 65 l22 -65 65 0 66 0 -49 -37 c-27 -20
-51 -38 -52 -39 -2 -1 4 -28 13 -59 9 -32 15 -59 13 -61 -2 -2 -26 12 -53 31
l-48 35 -50 -36 c-27 -19 -51 -34 -53 -32 -2 2 3 26 11 53 8 26 15 53 15 60 0
6 -21 27 -47 46 l-48 34 64 5 65 5 20 63 c11 34 21 62 22 62 1 0 12 -29 24
-65z m1631 -65 l64 -5 -47 -34 c-27 -19 -48 -40 -48 -46 0 -7 7 -34 15 -60 8
-27 12 -51 10 -53 -2 -3 -21 9 -42 25 -58 45 -57 45 -109 8 -26 -19 -50 -33
-52 -30 -2 2 4 29 13 60 9 32 14 59 12 61 -2 3 -26 20 -53 39 l-49 35 67 0 66
0 23 68 22 67 22 -65 22 -65 64 -5z m689 65 l22 -65 65 0 66 0 -49 -37 c-27
-20 -51 -38 -52 -39 -2 -1 4 -28 13 -59 9 -32 15 -59 13 -61 -2 -2 -26 12 -53
31 l-48 35 -50 -36 c-27 -19 -51 -34 -53 -32 -2 2 3 26 11 53 8 26 15 53 15
60 0 6 -21 27 -47 46 l-48 34 64 5 65 5 20 63 c11 34 21 62 22 62 1 0 12 -29
24 -65z m-1545 -5 l18 -59 65 -3 64 -3 -48 -34 c-27 -19 -50 -35 -51 -36 -1 0
6 -30 17 -66 11 -35 20 -65 20 -67 0 -1 -24 16 -54 38 l-55 42 -55 -42 c-31
-22 -56 -39 -56 -38 0 2 9 32 20 67 11 36 18 66 17 66 -1 1 -24 17 -51 36
l-48 34 64 3 65 3 18 59 c10 33 21 60 25 60 4 0 15 -27 25 -60z m-1935 -325
l22 -65 66 0 67 0 -49 -35 c-27 -19 -51 -37 -53 -39 -3 -3 3 -28 12 -55 9 -28
15 -56 13 -62 -2 -6 -25 6 -51 26 -50 39 -50 39 -110 -8 -21 -16 -40 -27 -44
-24 -3 3 2 27 11 53 9 26 16 53 16 60 0 7 -21 28 -47 46 l-48 33 64 5 65 5 20
63 c11 34 21 62 22 62 1 0 12 -29 24 -65z m1631 -65 l64 -5 -47 -33 c-27 -18
-48 -38 -48 -45 0 -7 7 -34 15 -61 8 -27 14 -51 12 -53 -2 -1 -26 13 -55 33
l-51 36 -48 -37 c-26 -20 -49 -32 -51 -26 -2 6 4 34 13 62 10 28 13 54 9 59
-5 4 -29 22 -53 39 l-44 31 66 0 65 0 23 68 22 67 22 -65 22 -65 64 -5z m689
65 l22 -65 66 0 67 0 -49 -35 c-27 -19 -51 -37 -53 -39 -3 -3 3 -28 12 -55 9
-28 15 -56 13 -62 -2 -6 -25 6 -51 26 -50 39 -50 39 -110 -8 -21 -16 -40 -27
-44 -24 -3 3 2 27 11 53 9 26 16 53 16 60 0 7 -21 28 -47 46 l-48 33 64 5 65
5 20 63 c11 34 21 62 22 62 1 0 12 -29 24 -65z m1631 -65 l64 -5 -47 -33 c-27
-18 -48 -38 -48 -45 0 -7 7 -34 15 -61 8 -27 14 -51 12 -53 -2 -1 -26 13 -55
33 l-51 36 -48 -37 c-26 -20 -49 -32 -51 -26 -2 6 4 34 13 62 10 28 13 54 9
59 -5 4 -29 22 -53 39 l-44 31 66 0 65 0 23 68 22 67 22 -65 22 -65 64 -5z
m-3176 63 l20 -58 64 -5 65 -5 -52 -35 c-41 -28 -50 -39 -45 -55 26 -82 31
-105 26 -105 -3 0 -27 16 -54 36 l-49 36 -49 -36 c-27 -20 -51 -36 -54 -36 -5
0 3 35 26 105 5 16 -3 27 -45 55 l-51 35 64 5 64 5 20 58 c11 31 22 57 25 57
3 0 14 -26 25 -57z m2320 0 l20 -58 64 -5 65 -5 -52 -35 c-41 -28 -50 -39 -45
-55 26 -82 31 -105 26 -105 -3 0 -27 16 -54 36 l-49 36 -49 -36 c-27 -20 -51
-36 -54 -36 -5 0 3 35 26 105 5 16 -3 27 -45 55 l-51 35 64 5 64 5 20 58 c11
31 22 57 25 57 3 0 14 -26 25 -57z m-2621 -383 l71 -1 -34 -27 c-84 -66 -78
-53 -57 -117 9 -31 16 -58 14 -60 -2 -2 -27 12 -55 31 l-50 36 -50 -36 c-28
-20 -53 -36 -56 -36 -3 0 3 25 14 57 10 31 19 59 19 62 0 4 -24 25 -52 46
l-53 40 69 5 69 5 21 60 20 60 20 -62 20 -63 70 0z m684 59 l19 -54 66 -3 c37
-2 67 -6 67 -10 0 -4 -23 -22 -50 -41 -28 -18 -50 -37 -50 -41 0 -4 9 -32 19
-63 11 -32 17 -57 14 -57 -3 0 -27 16 -55 36 l-49 36 -51 -36 c-28 -20 -53
-34 -56 -32 -2 2 5 30 14 61 21 64 27 51 -57 117 l-34 27 71 1 71 0 18 60 c10
33 20 59 22 57 2 -2 11 -28 21 -58z m1636 -59 l71 -1 -34 -27 c-84 -66 -78
-53 -57 -117 9 -31 16 -58 14 -60 -2 -2 -27 12 -55 31 l-50 36 -50 -36 c-28
-20 -53 -36 -56 -36 -3 0 3 25 14 57 10 31 19 59 19 62 0 4 -24 25 -52 46
l-53 40 69 5 69 5 21 60 20 60 20 -62 20 -63 70 0z m684 59 l19 -54 66 -3 c37
-2 67 -6 67 -10 0 -4 -23 -22 -50 -41 -28 -18 -50 -37 -50 -41 0 -4 9 -32 19
-63 11 -32 17 -57 14 -57 -3 0 -27 16 -55 36 l-49 36 -51 -36 c-28 -20 -53
-34 -56 -32 -2 2 5 30 14 61 21 64 27 51 -57 117 l-34 27 71 1 71 0 18 60 c10
33 20 59 22 57 2 -2 11 -28 21 -58z m-1544 -4 l17 -55 65 0 c35 0 64 -4 64 -9
0 -5 -15 -19 -32 -30 -73 -46 -70 -41 -48 -106 11 -32 18 -60 16 -62 -2 -3
-27 12 -55 32 l-51 37 -50 -37 c-28 -21 -53 -35 -55 -33 -3 3 4 31 15 63 22
65 26 56 -47 107 -18 13 -33 26 -33 31 0 4 29 7 64 7 l65 0 17 55 c10 30 21
55 24 55 3 0 14 -25 24 -55z m-1936 -326 l19 -54 69 -5 69 -5 -52 -40 c-29
-21 -53 -42 -53 -46 0 -3 9 -31 19 -62 11 -32 17 -57 14 -57 -3 0 -28 16 -55
36 l-49 37 -52 -36 c-28 -20 -53 -34 -55 -32 -2 2 5 29 14 60 l18 57 -25 22
c-14 11 -39 31 -55 43 l-29 22 71 0 71 1 18 60 c10 33 20 59 22 57 2 -2 11
-28 21 -58z m1636 -59 l71 -1 -34 -27 c-84 -66 -78 -53 -57 -117 9 -31 16 -59
13 -61 -2 -2 -25 12 -50 31 -25 19 -49 35 -53 35 -3 0 -28 -16 -54 -35 -26
-19 -50 -35 -53 -35 -3 0 3 25 14 57 10 31 19 60 19 64 0 4 -24 24 -52 46
l-53 38 69 5 69 5 21 60 20 60 20 -62 20 -63 70 0z m684 59 l19 -54 69 -5 69
-5 -52 -40 c-29 -21 -53 -42 -53 -46 0 -3 9 -31 19 -62 11 -32 17 -57 14 -57
-3 0 -28 16 -55 36 l-49 37 -52 -36 c-28 -20 -53 -34 -55 -32 -2 2 5 29 14 60
l18 57 -25 22 c-14 11 -39 31 -55 43 l-29 22 71 0 71 1 18 60 c10 33 20 59 22
57 2 -2 11 -28 21 -58z m1636 -59 l71 -1 -34 -27 c-84 -66 -78 -53 -57 -117 9
-31 16 -59 13 -61 -2 -2 -25 12 -50 31 -25 19 -49 35 -53 35 -3 0 -28 -16 -54
-35 -26 -19 -50 -35 -53 -35 -3 0 3 25 14 57 10 31 19 60 19 64 0 4 -24 24
-52 46 l-53 38 69 5 69 5 21 60 20 60 20 -62 20 -63 70 0z m-3180 55 l17 -55
65 0 c35 0 64 -3 64 -7 0 -5 -23 -23 -50 -42 -28 -19 -50 -35 -50 -36 0 -1 9
-28 20 -60 11 -32 18 -60 16 -63 -3 -2 -26 12 -52 32 -26 20 -50 36 -54 36 -4
0 -28 -16 -54 -36 -26 -20 -49 -34 -52 -32 -2 3 5 31 16 63 11 32 20 59 20 60
0 1 -22 17 -50 36 -27 19 -50 37 -50 42 0 4 29 7 64 7 l65 0 17 55 c10 30 21
55 24 55 3 0 14 -25 24 -55z m2320 0 l17 -55 65 0 c35 0 64 -3 64 -7 0 -5 -23
-23 -50 -42 -28 -19 -50 -35 -50 -36 0 -1 9 -28 20 -60 11 -32 18 -60 16 -63
-3 -2 -26 12 -52 32 -26 20 -50 36 -54 36 -4 0 -28 -16 -54 -36 -26 -20 -49
-34 -52 -32 -2 3 5 31 16 63 11 32 20 59 20 60 0 1 -22 17 -50 36 -27 19 -50
37 -50 42 0 4 29 7 64 7 l65 0 17 55 c10 30 21 55 24 55 3 0 14 -25 24 -55z
m-2708 -325 l16 -59 72 -3 71 -3 -56 -39 -57 -40 19 -55 c11 -30 19 -58 19
-64 0 -5 -23 7 -50 27 -28 20 -53 36 -56 36 -4 0 -28 -16 -54 -35 -26 -19 -50
-35 -53 -35 -3 0 3 25 14 57 10 31 19 60 19 64 0 4 -24 25 -52 46 l-53 38 69
5 69 5 15 45 c7 25 15 51 17 58 8 22 14 13 31 -48z m774 -3 l16 -52 69 -5 70
-5 -52 -38 c-29 -22 -53 -42 -53 -46 0 -4 9 -33 19 -64 11 -32 18 -57 15 -57
-2 0 -26 16 -53 35 -26 19 -51 35 -55 35 -4 0 -28 -16 -54 -36 -26 -19 -48
-31 -49 -27 -2 5 5 34 16 64 l18 55 -54 39 -55 40 70 3 70 3 17 60 c9 34 19
58 23 54 3 -3 13 -29 22 -58z m773 3 l17 -60 65 0 c36 0 65 -4 65 -8 0 -4 -12
-15 -27 -25 -16 -9 -38 -25 -51 -35 l-22 -17 20 -59 c11 -33 19 -61 17 -62 -2
-2 -27 13 -55 33 l-52 36 -52 -36 c-28 -20 -53 -35 -55 -33 -2 1 6 29 17 62
l20 59 -22 17 c-13 10 -35 26 -50 35 -16 10 -28 21 -28 25 0 4 29 8 65 8 l65
0 17 60 c10 33 20 60 23 60 3 0 13 -27 23 -60z m773 0 l16 -59 72 -3 71 -3
-56 -39 -57 -40 19 -55 c11 -30 19 -58 19 -64 0 -5 -23 7 -50 27 -28 20 -53
36 -56 36 -4 0 -28 -16 -54 -35 -26 -19 -50 -35 -53 -35 -3 0 3 25 14 57 10
31 19 60 19 64 0 4 -24 25 -52 46 l-53 38 69 5 69 5 15 45 c7 25 15 51 17 58
8 22 14 13 31 -48z m774 -3 l16 -52 69 -5 70 -5 -52 -38 c-29 -22 -53 -42 -53
-46 0 -4 9 -33 19 -64 11 -32 18 -57 15 -57 -2 0 -26 16 -53 35 -26 19 -51 35
-55 35 -4 0 -28 -16 -54 -36 -26 -19 -48 -31 -49 -27 -2 5 5 34 16 64 l18 55
-54 39 -55 40 70 3 70 3 17 60 c9 34 19 58 23 54 3 -3 13 -29 22 -58z m-3480
-330 l16 -52 69 -5 70 -5 -53 -38 c-28 -21 -52 -42 -52 -46 0 -4 9 -33 19 -64
11 -32 18 -57 15 -57 -3 0 -26 16 -51 35 -25 19 -50 35 -54 35 -5 0 -31 -16
-59 -36 -27 -20 -50 -32 -50 -27 0 6 9 35 19 65 l19 56 -56 38 -56 39 71 3 70
3 17 61 c9 33 20 57 24 54 4 -4 14 -31 22 -59z m774 3 l17 -60 67 0 67 -1 -25
-22 c-14 -12 -38 -31 -53 -42 l-28 -20 21 -59 c11 -33 18 -61 17 -63 -2 -2
-25 13 -50 32 -25 19 -50 35 -55 35 -5 0 -30 -16 -57 -35 -27 -19 -50 -33 -52
-31 -2 1 6 29 17 62 l21 59 -28 20 c-15 11 -39 30 -53 42 l-25 22 67 1 67 0
17 60 c9 33 20 60 24 60 4 0 15 -27 24 -60z m776 -12 l12 -47 70 -3 70 -3 -55
-40 -54 -39 18 -55 c11 -30 19 -58 19 -63 0 -6 -22 6 -49 26 -27 20 -52 36
-56 36 -4 0 -30 -16 -56 -35 -27 -19 -51 -35 -53 -35 -3 0 4 25 15 57 10 31
19 60 19 64 0 4 -24 25 -52 46 l-53 38 70 5 69 5 13 45 c21 75 23 77 33 60 5
-8 14 -36 20 -62z m770 9 l16 -52 69 -5 70 -5 -53 -38 c-28 -21 -52 -42 -52
-46 0 -4 9 -33 19 -64 11 -32 18 -57 15 -57 -3 0 -26 16 -51 35 -25 19 -50 35
-54 35 -5 0 -31 -16 -59 -36 -27 -20 -50 -32 -50 -27 0 6 9 35 19 65 l19 56
-56 38 -56 39 71 3 70 3 17 61 c9 33 20 57 24 54 4 -4 14 -31 22 -59z m774 3
l17 -60 67 0 67 -1 -25 -22 c-14 -12 -38 -31 -53 -42 l-28 -20 21 -59 c11 -33
18 -61 17 -63 -2 -2 -25 13 -50 32 -25 19 -50 35 -55 35 -5 0 -30 -16 -57 -35
-27 -19 -50 -33 -52 -31 -2 1 6 29 17 62 l21 59 -28 20 c-15 11 -39 30 -53 42
l-25 22 67 1 67 0 17 60 c9 33 20 60 24 60 4 0 15 -27 24 -60z m776 -12 l12
-47 70 -3 70 -3 -55 -40 -54 -39 18 -55 c11 -30 19 -58 19 -63 0 -6 -22 6 -49
26 -27 20 -52 36 -56 36 -4 0 -30 -16 -56 -35 -27 -19 -51 -35 -53 -35 -3 0 4
25 15 57 10 31 19 60 19 64 0 4 -24 25 -52 46 l-53 38 70 5 69 5 13 45 c21 75
23 77 33 60 5 -8 14 -36 20 -62z"/>
<path d="M0 2115 l0 -235 5800 0 5800 0 0 235 0 235 -5800 0 -5800 0 0 -235z"/>
<path d="M0 1175 l0 -235 5800 0 5800 0 0 235 0 235 -5800 0 -5800 0 0 -235z"/>
<path d="M0 235 l0 -235 5800 0 5800 0 0 235 0 235 -5800 0 -5800 0 0 -235z"/>
</g>
</svg>
