<?xml version="1.0" standalone="no"?>
<!DOCTYPE svg PUBLIC "-//W3C//DTD SVG 20010904//EN"
 "http://www.w3.org/TR/2001/REC-SVG-20010904/DTD/svg10.dtd">
<svg version="1.0" xmlns="http://www.w3.org/2000/svg"
 width="1160.000000pt" height="773.000000pt" viewBox="0 0 1160.000000 773.000000"
 preserveAspectRatio="xMidYMid meet">
<metadata>
Created by potrace 1.15, written by Peter Selinger 2001-2017
</metadata>
<g transform="translate(0.000000,773.000000) scale(0.100000,-0.100000)"
fill="#000000" stroke="none">
<path d="M0 3865 l0 -3865 5800 0 5800 0 0 3865 0 3865 -5800 0 -5800 0 0
-3865z m4010 3344 c-5 -52 -10 -113 -10 -135 l0 -42 123 -52 c67 -29 123 -54
125 -55 2 -2 -57 -17 -131 -35 l-135 -31 -5 -37 c-3 -20 -9 -81 -13 -134 -4
-54 -9 -98 -13 -98 -3 0 -37 52 -74 116 -52 87 -72 114 -85 110 -45 -13 -245
-56 -248 -53 -2 2 37 49 86 105 l89 102 -70 116 c-38 64 -69 118 -67 119 2 2
59 -20 127 -50 l124 -53 91 104 c49 57 91 102 93 100 2 -1 -1 -45 -7 -97z
m-1944 -656 l128 -393 420 0 c410 0 420 0 401 -19 -11 -10 -162 -121 -335
-246 -173 -125 -317 -230 -319 -232 -3 -2 53 -179 123 -394 70 -215 125 -394
122 -396 -2 -3 -150 101 -328 229 -178 129 -329 238 -335 242 -8 4 -123 -73
-300 -202 -159 -115 -311 -226 -340 -246 l-52 -37 14 48 c8 26 66 205 129 398
69 209 111 353 106 360 -4 5 -155 116 -334 245 -179 129 -326 238 -326 242 0
4 188 9 417 10 l417 3 128 390 c70 215 127 392 128 394 1 15 22 -46 136 -396z
m2722 -164 c67 33 122 57 122 54 0 -4 -27 -58 -61 -121 l-61 -115 44 -46 c23
-25 68 -72 98 -105 36 -38 48 -56 35 -53 -33 10 -258 48 -260 45 -1 -2 -31
-57 -66 -123 -72 -136 -68 -137 -89 33 -7 55 -16 106 -20 112 -4 7 -64 22
-134 33 -69 12 -126 24 -126 27 0 3 54 32 120 65 102 50 119 62 115 80 -6 28
-35 233 -35 248 0 7 44 -34 98 -91 l97 -102 123 59z m-112 -1110 l48 -132 138
6 c76 4 138 5 138 3 0 -2 -47 -40 -105 -85 -58 -45 -105 -88 -105 -96 0 -7 5
-26 11 -42 39 -99 78 -214 72 -210 -5 3 -55 37 -112 76 -58 39 -109 71 -114
71 -5 0 -54 -36 -110 -80 -56 -44 -103 -76 -105 -71 -2 5 13 64 32 132 20 67
35 123 33 124 -1 1 -51 35 -112 76 l-110 74 45 7 c25 3 86 7 136 7 l91 1 39
135 c21 74 39 135 40 135 1 0 24 -59 50 -131z m-679 -812 l-6 -133 130 -49
c74 -28 124 -52 117 -55 -7 -4 -68 -22 -135 -40 l-123 -33 -1 -81 c-1 -45 -4
-107 -8 -139 l-6 -57 -74 115 c-41 63 -77 115 -80 115 -3 0 -62 -16 -130 -35
-69 -19 -126 -33 -128 -31 -2 2 33 48 77 103 44 56 80 106 80 112 0 6 -32 58
-70 117 -39 59 -69 108 -67 111 2 2 58 -17 123 -42 65 -25 124 -45 129 -45 6
1 45 46 88 100 43 55 81 100 84 100 4 0 3 -60 0 -133z"/>
</g>
</svg>
